<svg width="24" height="24" viewBox="0 0 24 24" fill="none" xmlns="http://www.w3.org/2000/svg">
<g id="Group 9">
<circle id="Oval" cx="12" cy="12" r="12" fill="#F96464"/>
<path id="!" fill-rule="evenodd" clip-rule="evenodd" d="M13.256 15.056V6H11.256V15.056H13.256ZM11.368 18.152C11.6133 18.36 11.928 18.464 12.312 18.464C12.696 18.464 13.0053 18.36 13.24 18.152C13.4747 17.944 13.592 17.6693 13.592 17.328C13.592 16.9973 13.472 16.72 13.232 16.496C12.992 16.272 12.6853 16.16 12.312 16.16C11.9387 16.16 11.6267 16.272 11.376 16.496C11.1253 16.72 11 16.9973 11 17.328C11 17.6693 11.1227 17.944 11.368 18.152Z" fill="white"/>
</g>
</svg>
